<?xml version="1.0" encoding="utf-8"?>
<!-- Generator: Adobe Illustrator 27.3.1, SVG Export Plug-In . SVG Version: 6.00 Build 0)  -->
<svg version="1.1" id="Camada_1" xmlns="http://www.w3.org/2000/svg" xmlns:xlink="http://www.w3.org/1999/xlink" x="0px" y="0px"
	 viewBox="0 0 2000 2000" style="enable-background:new 0 0 2000 2000;" xml:space="preserve">
<style type="text/css">
	.st0{fill:url(#SVGID_1_);}
	.st1{fill:url(#SVGID_00000005966507285334952330000006662991483478900134_);}
	.st2{fill:url(#SVGID_00000114777780648869148430000007677779764209105574_);}
	.st3{fill:url(#SVGID_00000153663794186816423590000007312816212299047057_);}
	.st4{fill:url(#SVGID_00000121996445171510334710000001959197804820729731_);}
	.st5{fill:url(#SVGID_00000026844035674576006360000013782416411871519412_);}
	.st6{fill:none;}
	.st7{fill:#1F71B6;}
	.st8{fill:#2071B7;}
	.st9{fill:url(#SVGID_00000073715024878887414770000007017511999202027653_);}
	.st10{fill:url(#SVGID_00000162335481742828231560000002444358991389571993_);}
	.st11{fill:url(#SVGID_00000079453467243999042240000017615582337071205815_);}
	.st12{fill:url(#SVGID_00000183222800283471885780000002379044459245126298_);}
	.st13{fill:url(#SVGID_00000121238217338272726210000018269803312398056839_);}
</style>
<g>
	
		<radialGradient id="SVGID_1_" cx="1015.6425" cy="-3499.1599" r="934.562" gradientTransform="matrix(1 0 0 -1 0 -2499.1599)" gradientUnits="userSpaceOnUse">
		<stop  offset="0" style="stop-color:#4DADCB"/>
		<stop  offset="1" style="stop-color:#05497F"/>
	</radialGradient>
	<circle class="st0" cx="1015.6" cy="1000" r="934.6"/>
	
		<radialGradient id="SVGID_00000043439375158934566220000017057003779912946304_" cx="514.2651" cy="-3369.5505" r="180.7899" gradientTransform="matrix(1 0 0 -1 0 -2499.1599)" gradientUnits="userSpaceOnUse">
		<stop  offset="0" style="stop-color:#F19532"/>
		<stop  offset="1" style="stop-color:#FCDB13"/>
	</radialGradient>
	<circle style="fill:url(#SVGID_00000043439375158934566220000017057003779912946304_);" cx="514.3" cy="870.4" r="180.8"/>
	
		<radialGradient id="SVGID_00000039823866839739162460000017000467878533173914_" cx="909.9174" cy="-2963.6624" r="150.0816" gradientTransform="matrix(1 0 0 -1 0 -2499.1599)" gradientUnits="userSpaceOnUse">
		<stop  offset="0" style="stop-color:#F19532"/>
		<stop  offset="1" style="stop-color:#FCDB13"/>
	</radialGradient>
	<circle style="fill:url(#SVGID_00000039823866839739162460000017000467878533173914_);" cx="909.9" cy="464.5" r="150.1"/>
	
		<radialGradient id="SVGID_00000098193889461254484840000000836060142226124729_" cx="1416.1964" cy="-2965.104" r="124.7556" gradientTransform="matrix(1 0 0 -1 0 -2499.1599)" gradientUnits="userSpaceOnUse">
		<stop  offset="0" style="stop-color:#F19532"/>
		<stop  offset="1" style="stop-color:#FCDB13"/>
	</radialGradient>
	<circle style="fill:url(#SVGID_00000098193889461254484840000000836060142226124729_);" cx="1416.2" cy="465.9" r="124.8"/>
	
		<radialGradient id="SVGID_00000157287307117313480010000004733189402818534589_" cx="588.6796" cy="-3620.3552" r="672.1167" gradientTransform="matrix(1 0 0 -1 0.29 -2499.3)" gradientUnits="userSpaceOnUse">
		<stop  offset="0" style="stop-color:#F19532"/>
		<stop  offset="1" style="stop-color:#FCDB13"/>
	</radialGradient>
	<path style="fill:url(#SVGID_00000157287307117313480010000004733189402818534589_);" d="M459.7,1289.9c0,0-120.1-68.3-208.1-378.6
		c-92.1-324-78.4-573-78.4-573s-255.9,566.2-30.7,1047.2c217.7,465.1,668.7,518.4,668.7,518.4l4.8-89.5
		c14.6-259.3,92.7-511,227.5-733l84.7-139.4c0,0-190.3-53.3-409.3,81.7C558.6,1122.7,459.7,1289.9,459.7,1289.9z"/>
</g>
<radialGradient id="SVGID_00000067945798194582584010000014217903588530643371_" cx="-1829.0994" cy="-3384.4302" r="641.3575" gradientTransform="matrix(0.9996 -2.652589e-02 -2.652589e-02 -0.9996 -10.2077 -2461.885)" gradientUnits="userSpaceOnUse">
	<stop  offset="0" style="stop-color:#FCFCFC"/>
	<stop  offset="1" style="stop-color:#FFFFFF"/>
</radialGradient>
<path style="fill:url(#SVGID_00000067945798194582584010000014217903588530643371_);" d="M-876,993.5
	c5,188.1-106.4,205.9-244.3,209.5l-1243.8,33.1c-137.9,3.7-252.7-105.2-256.4-243.1l0,0c-3.7-137.9,105.2-252.7,243.1-256.4
	l1234.6,76.5C-1142.8,813.1-880.7,816.1-876,993.5z"/>
<path class="st6" d="M-952.8,982.7c-5.7,0.2-11.3,0.1-17,0.1c-5,0-9.9-0.1-14.9,0c-4.5,0-9,0.7-13.2,2c-7.6,2.5-11.8,7.6-12.1,15.7
	c-0.3,7.5,2.8,13.2,9.5,16.9c3.5,1.8,7.3,2.9,11.1,3.3c16.5,2.5,31.5-4.8,38.3-18.7c0.6-1.2,1-2.6,1-4c-0.1-4.1-0.1-8.3,0-12.4
	C-950,983.3-950.6,982.6-952.8,982.7z"/>
<path class="st7" d="M-1570.2,978.8c-8.2-3.6-16.9-5.2-25.5-6.9c-7.6-1.5-15.5-2.4-22.3-6.4c-6.7-3.8-9-12.3-5.3-19
	c0.9-1.7,2.2-3.1,3.7-4.3c2.8-2.2,6.1-3.7,9.6-4.3c14.8-3,28.9-1.2,41.9,6.9c1.7,1.1,2.6,1,3.4-0.8c1.3-2.7,2.7-5.3,4.2-7.8
	c1.4-2.2,1.3-3.5-1.2-4.8c-14.2-7.4-29.3-9.6-45-8.1c-7.3,0.5-14.4,2.8-20.7,6.7c-9.2,5.9-13.9,14.3-13.7,25.2
	c0.2,12.1,6.5,20.1,17.5,24.6c7,2.9,14.5,4.2,21.9,5.6c8,1.5,16.2,2.3,23.5,6.4c6.4,3.5,8.8,11.6,5.3,18c-0.8,1.5-1.9,2.8-3.2,3.8
	c-2.5,2.2-5.5,3.7-8.8,4.3c-18.1,3.9-34.9,1-50.6-8.9c-1.7-0.9-2.6-2.8-2.2-4.7c0.8-12.7-4.4-21.2-16.1-26.3
	c-6.4-2.8-13.3-4.2-20.1-5.5c-8-1.5-16.1-2.5-23.7-5.8c-5.6-2.4-9.6-6.2-9.6-12.7c-0.1-6.8,3.4-11.3,9.4-14.2
	c5.2-2.5,10.9-3.2,16.5-3.3c12-0.2,23.2,2.5,33.3,9.6c1.6-3.3,3.4-6.6,5.4-9.7c2-2.8,0.8-4-1.7-5.3c-8.5-4.4-17.8-7.1-27.4-7.8
	c-12.4-1.2-24.7-0.5-35.9,5.6c-11,6-16.3,15.4-15.5,28c0.8,11.6,7.3,18.7,17.7,23c8.3,3.4,17.1,4.6,25.8,6.2
	c6.3,1.2,12.6,2.2,18.4,5.1c6.4,3.2,9,8.5,7.4,15.2c-1.7,6.9-6.8,10.2-13,11.5c-19.1,4.2-36.8,0.7-53.2-10.5c-1.4,2.5-2.9,5-4.4,7.5
	c-3.1,5.4-3.1,5.5,2.3,8.6c15.2,8.9,31.7,11.3,48.9,9.6c8.7-0.8,17.4-2.6,24-8.4c4.2-3.7,6.7-2.8,10.8-0.4
	c14.5,8.3,30.5,10.4,46.9,8.8c9.3-0.9,18-3.4,25.7-9.2C-1551.7,1013.6-1550.8,987.5-1570.2,978.8z"/>
<path class="st7" d="M-2022.6,909.7c-9.4-13.5-23.5-18.8-39.1-20.8c-11.4-1.5-22.9-0.3-32.4-0.7c-11.1,0-20.2,0.2-29.3-0.1
	c-3.3-0.1-4.3,0.6-4.3,4.2c0.1,45.4,0.1,90.8,0.1,136.2c0,0.7,0.1,1.4,0,2.1c-0.2,1.7,0.5,2.3,2.2,2.2c3.7-0.1,7.3-0.2,11,0
	c2.8,0.2,3.3-0.8,3.3-3.4c-0.1-12.9,0-25.8-0.1-38.7c0-2.6,0.5-3.4,3.3-3.4c11.6,0.2,23.2,0.1,34.8,0.1c6.6,0,13.2-0.7,19.7-2.1
	C-2018.1,977.6-2002.3,939-2022.6,909.7z M-2032.6,950.1c-4.1,12.3-13.5,18.3-25.4,21.1c-5.4,1.2-11,1.7-16.5,1.6
	c-11.2,0-22.5-0.1-33.7,0c-2.3,0-3-0.6-3-3c0.1-10.8,0.1-21.5,0.1-32.3s0-21.5,0-32.2c0-1.8,0.3-2.8,2.5-2.8
	c14.4,0.3,28.8-0.5,43.2,0.5c5.9,0.4,11.7,1.9,17,4.5c11,5.3,16.5,14.4,17.5,26.4C-2030.4,939.4-2031,944.9-2032.6,950.1
	L-2032.6,950.1z"/>
<path class="st7" d="M-1212.8,1018.5c0,1.1,0,1.7,0,2.3c0.3,4-1.8,9.4,0.9,11.5c2.6,2.1,7.7,0.5,11.7,0.7c1.9,0.1,2.8-0.4,2.8-2.5
	c-0.1-23.8,0.2-47.5-0.4-71.3c-0.5-18.2-11.6-30.8-29.3-34.7c-10.5-2.2-21.3-2.1-31.7,0.3c-9.3,1.9-18.1,5.8-25.6,11.6
	c-1.7,1.3-1.9,2.2-0.7,4c2.1,3.1,4,6.4,6,9.8c9.7-8.4,22.2-13,35-13c9-0.1,17.8,1.1,24.4,8.2c5.7,6.2,6.5,13.9,6.5,21.8
	c0,2.6-0.5,3.6-3.4,3.6c-10.6-0.2-21.3-0.1-31.9-0.1c-6.6-0.1-13.2,0.9-19.6,2.9c-13.2,4.3-20.3,13.4-21,26.8
	c-0.7,12.7,6.2,23.8,18,29.2C-1251.7,1038.4-1229.6,1034.4-1212.8,1018.5z M-1273.5,999.9c0.7-9.4,7.1-15.1,18.2-16.5
	c7.4-1,14.9-0.4,21.2-0.6c6.8,0,12.5,0.1,18.2,0c2,0,2.7,0.6,2.6,2.6c-0.1,4.2,0.2,8.5-0.1,12.8c-0.3,4.7-3.2,8.3-6.2,11.7
	c-9,10-20.6,12.2-33.3,10.9c-1.6-0.2-3.3-0.5-4.8-1C-1268.5,1016.7-1274.2,1009.5-1273.5,999.9L-1273.5,999.9z"/>
<path class="st7" d="M-1899.8,922.9c-33.1,0-56.3,22.7-56.3,55.2c0,32.3,23.1,55.6,55.2,55.7c32.1,0.1,55.5-23.2,55.6-55.3
	C-1845.1,946.5-1868.2,922.9-1899.8,922.9z M-1877.1,1012.1c-20.3,15.2-57.4,8-62.4-26.6c-2-14.3,0.9-27.3,11.5-37.8
	c7.5-7.5,16.9-10.6,27.3-10.7c21.3-0.2,37.9,15.6,39.1,37.6C-1860.7,989.5-1864.6,1002.7-1877.1,1012.1z"/>
<path class="st7" d="M-1465.9,922.9c-32.8,0-55.8,22.8-55.8,55.3s23,55.5,55.2,55.7c30.2,0.1,55.5-21,55.6-55.8
	C-1410.9,945.9-1434.1,922.9-1465.9,922.9z M-1452.3,1017.2c-26.2,9.4-52.7-8.7-53.3-36.6c-0.3-15.6,4.3-29,18.1-37.8
	c20.5-13,54.7-5.6,59.9,27.3c0.4,2.7,0.6,5.4,0.9,8.1C-1427.1,996.8-1436.7,1011.6-1452.3,1017.2z"/>
<path class="st7" d="M-1398.2,1032.9c3.3-0.2,6.6-0.2,9.9,0c2.7,0.2,3.4-0.7,3.4-3.4c-0.1-12.5-0.1-25.1,0-37.6
	c0-7.3-0.2-14.6,0.4-22c1.2-16.5,11.2-28.3,27.1-31.7c5.4-1.2,11.1-1.3,16.6-0.4c12.7,1.9,21.2,9.9,23.7,22.5c0.6,3.2,1,6.6,0.9,9.9
	c0,19.8,0,39.5-0.1,59.2c0,2.8,0.7,3.7,3.6,3.5c2.9-0.2,5.9-0.2,8.9,0c2.9,0.2,3.8-0.6,3.8-3.7c-0.2-15.3,0-30.5-0.1-45.8
	c0-7.6,0.4-15.1-0.5-22.7c-1.4-11-5.2-20.8-14-28.2c-17.6-14.7-50.6-12.8-66.5,3.8c-1.3,1.3-2.4,2.7-4.2,4.7c0-5.5-0.1-10.2,0-14.8
	c0-1.9-0.4-2.8-2.5-2.7c-3.5,0.2-7.1,0.1-10.6,0c-1.9-0.1-2.4,0.5-2.4,2.4c0,34.8,0,69.5,0,104.3
	C-1400.8,1032.5-1400.1,1033-1398.2,1032.9z"/>
<path class="st7" d="M-1026,1022.9c0.2-2.8-0.6-3.5-3.4-3.5c-20.2,0.1-40.4,0.1-60.7,0.1h-4.1c1.4-1.8,2.4-3.1,3.4-4.4
	c19.7-25.1,39.4-50.2,59.3-75.1c3-3.5,4.5-7.9,4.3-12.5c-0.1-3.3-1.1-3.8-4-3.8c-24.2,0.1-48.5,0.1-72.7,0.1c-3.2,0-7.4-1-9.2,0.6
	c-2.2,1.9-0.4,6.2-0.7,9.5c-0.3,2.7,0.6,3.6,3.4,3.6c19.5-0.1,39-0.1,58.5,0c1.1,0,2.3-0.5,3.4,0.5c-0.7,1-1.4,2-2.1,2.9
	c-19.9,25.2-39.8,50.5-59.9,75.6c-3.1,3.5-4.7,8.1-4.4,12.8c0.1,3.3,1.1,3.8,4.1,3.8c25-0.1,49.9,0,74.8-0.1c3.3,0,7.6,1.5,9.5-0.7
	C-1025,1030.3-1026.3,1026-1026,1022.9z"/>
<path class="st7" d="M-1804.4,892.7c5-1,10.2-0.7,15,0.9c2.6,0.8,5,4.4,7.2,3c2.2-1.4,2.7-5.1,3.9-7.8c0.1-0.2,0.2-0.4,0.3-0.7
	c1.5-2,0.8-3.2-1.2-4.4c-9.1-5.5-18.9-6.5-29-4.4c-13.3,2.7-21.1,10.9-23.5,24.2c-1.1,5.8-0.5,11.6-0.5,17.3c0,2.1-0.5,2.9-2.8,2.8
	c-4.7-0.2-9.5,0-14.2-0.1c-1.8,0-2.6,0.4-2.5,2.4c0.1,3,0.1,5.9,0,8.9c-0.1,1.9,0.6,2.5,2.4,2.4c4.6-0.1,9.2,0.1,13.8-0.1
	c2.5-0.1,3.2,0.7,3.2,3.2c-0.1,14.9,0,29.8,0,44.7v3.2c0,13.8,0.1,27.7-0.1,41.5c0,2.5,0.7,3.3,3.2,3.1c2.8-0.3,5.7-0.3,8.5,0
	c3.5,0.4,4.3-0.8,4.2-4.2c-0.1-29.3,0-58.6-0.2-87.9c0-2.8,0.8-3.6,3.6-3.5c6.3,0.2,12.5,0.1,18.8,0c3.4-0.1,8,1.6,9.8-0.7
	c1.8-2.3,0.4-6.6,0.6-10c0.2-2.4-0.7-3-3-2.9c-9.2,0.1-18.4,0-27.7,0.1c-2,0-2.7-0.5-2.7-2.6c0.1-4.6,0-9.2,0.5-13.8
	C-1815.8,899.5-1811.5,894.3-1804.4,892.7z"/>
<path class="st7" d="M-1990.4,972c0.4-17.4,10.5-29.6,26.2-33c3.3-0.9,6.8-1.2,10.2-0.9c2.3,0.3,3.2-0.3,3.1-2.8
	c-0.2-3.2-0.2-6.4,0-9.6c0.2-2.5-0.8-3-3.1-2.9c-15,0.6-28.1,5-37.4,18.1c0-2,0-3.9,0-5.9c-0.1-3.6,1.2-8.5-0.6-10.6
	c-2.1-2.4-7.1-0.3-10.8-0.8c-3.5-0.5-4,1.1-3.9,4.1c0.1,30.5,0.1,61,0.1,91.5c0,3.7,0.1,7.3,0,11c-0.1,2,0.7,2.7,2.7,2.6
	c3.1-0.2,6.1-0.2,9.2,0c3.4,0.3,4.3-0.7,4.3-4.2C-1990.7,1009.8-1990.9,990.9-1990.4,972z"/>
<path class="st7" d="M-1177.3,1030.1c0,2.1,0.5,3,2.8,2.8c3.1-0.2,6.2-0.2,9.2,0c3.1,0.3,4-0.6,4-3.8c-0.2-24.4-0.1-48.7-0.1-73.1
	v-12.8c0-20.1,0-40.2,0.1-60.3c0-2.6-0.6-3.6-3.3-3.3c-3.2,0.2-6.4,0.2-9.6,0c-2.2-0.1-3,0.4-3,2.9
	C-1177.3,931.7-1177.3,980.9-1177.3,1030.1z"/>
<path class="st7" d="M-1802,1070.5c-8.7-2.4-16.6-0.6-22.9,6.4c-0.2,0.2-0.5,0.2-0.8,0.4c-1.1-6.9-1.1-6.8-7.6-6.7
	c-2.3,0-2.6,0.8-2.6,2.9c0.2,21.3,0.2,42.6,0.3,63.8c0,7.4,0,7.2,7.5,7.3c2.4,0,3.2-0.6,3.2-3.1c-0.2-7.5-0.1-15.1-0.1-23.2
	c12.3,11,29.5,6.1,35.7-5.6c3.9-7.4,4.9-16,2.9-24.1C-1788.3,1079.8-1793,1073-1802,1070.5z M-1799.2,1108.8
	c-3,5.7-9.1,8.1-15.4,6.6c-6.1-1.5-10.4-6.9-10.5-13.1c0-1.5,0-3.1,0-5.4c-0.3-4.7,0.2-9.9,4.3-14.1c6.7-6.9,17.3-5.7,21.8,2.9
	C-1795,1093.3-1795.2,1101.2-1799.2,1108.8L-1799.2,1108.8z"/>
<path class="st7" d="M-1736.6,923.7c-3.2,0.2-6.4,0.2-9.6,0c-2.6-0.2-3.1,0.7-3.1,3.2c0.1,34.3,0.1,68.6,0,102.9
	c0,2.4,0.5,3.4,3.1,3.2c3.2-0.2,6.4-0.2,9.6,0c2.7,0.2,3.3-0.8,3.3-3.4c-0.1-17.1,0-34.3,0-51.4c0-17.1-0.1-34.1,0.1-51.1
	C-1733.3,924.3-1734,923.5-1736.6,923.7z"/>
<path class="st7" d="M-1545.2,1032.9c3.3-0.2,6.6-0.2,9.9,0c2.8,0.2,3.3-0.8,3.3-3.4c-0.1-17-0.1-34.1-0.1-51.1
	c0-17.3,0-34.5,0-51.8c0-2.2-0.5-3.1-2.9-3c-3.4,0.2-6.9,0.2-10.3,0c-2.2-0.1-2.8,0.6-2.8,2.8c0.1,34.5,0.1,69.1,0,103.6
	C-1548,1032.1-1547.5,1033-1545.2,1032.9z"/>
<path class="st7" d="M-1124.4,927.5c0-0.6-0.1-1.2,0-1.8c0.1-1.5-0.5-2.1-2-2c-3.6,0.1-7.1,0.2-10.6,0c-2.8-0.2-3.3,0.8-3.3,3.3
	c0.1,17,0.1,34.1,0.1,51.1c0,17.3,0,34.5,0,51.8c0,2.2,0.5,3.2,2.9,3c3.1-0.3,6.2-0.3,9.2,0c3.2,0.3,3.9-0.9,3.9-4
	C-1124.5,995.1-1124.4,961.3-1124.4,927.5z"/>
<path class="st7" d="M-2081.9,1051.8c-3.1-1.2-6.3-1.9-9.6-2.2c-26.9-3-44.4,14.1-44.1,38c0,18,9,31.1,24.3,35.3
	c8.3,2.3,16.6,1.9,24.9,0.1c6.8-1.5,6.9-1.8,5-8.5c-0.6-2.1-1.4-2.3-3.2-1.5c-2.6,1.1-5.4,1.8-8.2,2c-9,0.9-17.6-0.2-24.3-6.9
	c-10-9.9-10.1-31.5-0.3-41.7c8.2-8.5,18.5-9.2,29.2-6.8c6.3,1.4,6.2,1.6,7.9-4.7C-2079.8,1053.2-2080.2,1052.4-2081.9,1051.8z"/>
<path class="st7" d="M-1171.2,1069.6c-12.3,0-21.4,6.8-24.8,18.3c-1,3.7-1.4,7.4-1.2,11.2c0.5,17.8,16,29.2,33.1,24.2
	c11.3-3.3,17.7-11.4,18.5-25.2C-1144.6,1080.8-1155.7,1069.2-1171.2,1069.6z M-1161,1110.9c-6.5,7.5-16.8,6.8-22.2-1.5
	c-2.3-3.6-3.4-7.7-3.3-11.9c0-5.1,1-9.4,3.6-13.3c4-6.3,12.4-8.1,18.7-4.1c1.2,0.8,2.2,1.7,3.1,2.8
	C-1155,1089.7-1155,1103.9-1161,1110.9L-1161,1110.9z"/>
<path class="st7" d="M-1915.2,1072c-10.1-4.4-20.1-3.6-28.6,3.8c-9,7.9-10.2,18.6-7.8,29.7c1.8,8.7,7.2,14.8,15.7,17.7
	c15.1,5.2,35.3-3.6,34.9-26.4C-1901.1,1085.8-1904.6,1076.6-1915.2,1072z M-1916.2,1110.6c-4.4,5.9-12.7,7.2-18.7,2.8
	c-1.1-0.8-2.1-1.8-2.9-3c-5.3-7-5.5-19.2-0.5-26.4c4.1-6.3,12.5-8.1,18.8-4c1.8,1.1,3.2,2.7,4.3,4.5c2.2,3.7,3.4,7.9,3.3,12.2
	C-1911.9,1102-1913.1,1106.6-1916.2,1110.6z"/>
<path class="st7" d="M-1606.7,1069.7c-14.2-1.2-25,6.2-28.3,19.2c-1,4.3-1.2,8.7-0.6,13c1,8.1,4.6,14.9,12,19.1
	c8.8,5,18,4.7,26.7-0.2c9.3-5.2,12.6-13.9,12.7-24.1c-0.1-1.3-0.1-2.6-0.2-3.9C-1585.5,1080.1-1594.5,1070.7-1606.7,1069.7z
	 M-1598.8,1109.7c-5.7,8.4-16.8,8.4-22.6,0.2c-5-7.1-4.9-19.1,0.1-26.1c4.3-6.2,12.7-7.8,18.9-3.5c1.5,1,2.8,2.4,3.8,3.9
	c2.5,3.8,3.7,8.3,3.4,12.8C-1595,1101.5-1596.3,1106-1598.8,1109.7L-1598.8,1109.7z"/>
<path class="st7" d="M-1493,1070c-11.8-2.1-21.9,3-26.8,13.7c-2.8,6.2-3.6,13.1-2.5,19.7c1.7,11.3,8.9,18.7,20.2,20.6
	c6,1,11.8,0.3,17.6-1c6-1.3,5.8-1.4,4.5-7.4c-0.6-2.5-1.5-2.3-3.3-1.6c-4.4,1.7-9.2,2.3-13.9,1.9c-8-0.6-13.3-5.3-14.8-12.9
	c-0.5-2.3-0.3-3.7,2.8-3.6c5,0.3,9.9,0.1,14.9,0.1h11c8,0,8,0,7.4-8.2C-1477,1080.1-1483.7,1071.6-1493,1070z M-1488.7,1091.3
	c-3.5-0.1-7.1,0-10.6,0s-6.8-0.1-10.3,0c-2.6,0.1-2.6-0.8-2-2.9c2.2-7.1,6.9-10.9,13.5-10.8c6.3,0.1,11.5,5.2,11.6,11.5
	C-1486.4,1091.1-1487.2,1091.4-1488.7,1091.3z"/>
<path class="st7" d="M-1740.7,1117.8c0-0.6,0-1.2,0-1.8c-0.1-8.6-0.1-17.3-0.2-25.9c-0.1-11.3-5.6-18.7-15.1-20.1
	c-5.9-1-11.9-0.4-17.5,1.7c-5.8,2.2-5.9,2.5-3.7,8.2c0.7,1.7,1.2,1.8,2.7,1c3.9-2.2,8.4-3.3,12.9-3c5.1,0.3,8.2,2.7,9.5,7.1
	c0.9,2.9,0.8,4.8-3.1,4.4c-1.7-0.1-3.3,0.1-4.9,0.4c-6.2,0.8-12.2,2.2-16.9,6.5c-4.9,4.2-6.9,10.9-4.9,17.1c1.7,6.2,6,9.7,12.3,10.8
	c7.2,1.3,13.2-1,18.6-5.8c1.6,1.6-0.2,4.4,1.9,4.8c2.7,0.5,5.9,0.7,8.4-0.2C-1739,1122.4-1740.9,1119.6-1740.7,1117.8z
	 M-1751.4,1102.7c0,8.3-4.5,13.4-12,13.5c-3.8,0-6.7-1.7-7.8-4.8c-1.3-3.6-0.4-7.8,2.4-10c4.7-3.8,10.4-4,16.1-4.1
	c1.1,0,1.3,0.7,1.3,1.6C-1751.4,1100.1-1751.4,1101.4-1751.4,1102.7z"/>
<path class="st7" d="M-1661.8,1115c-0.1-8.5,0-17-0.1-25.5c-0.1-10.7-5.7-18.1-14.9-19.5c-5.5-1-11.2-0.6-16.5,1.3
	c-7.6,3-7.7,2-3.8,10.3c6-3,10.1-4.1,14.5-3.9c5.7,0.3,9.2,3.5,9.9,8.7c0.3,1.9-0.1,2.8-2.3,2.7c-2.1,0-4.2,0.2-6.3,0.5
	c-6.4,0.9-12.6,2.4-17.3,7.2c-8.6,8.4-5.5,23.1,5.6,26.6c6.9,2.2,13.3,0.9,19.1-3.5c0.8-0.6,1.2-1.8,2.5-1.5
	c0.7,4.8,0.7,4.8,5.8,4.8c4.7,0,4.7,0,4.1-4.5C-1661.8,1117.6-1661.8,1116.3-1661.8,1115z M-1672.5,1102.8c0,8.1-4.5,13.2-11.7,13.3
	c-4,0.1-7-1.7-8.1-5c-1.3-3.6-0.2-7.7,2.9-10.2c4.6-3.5,10-3.7,15.4-3.9c1.3,0,1.6,0.7,1.6,1.8
	C-1672.5,1100.3-1672.5,1101.6-1672.5,1102.8z"/>
<path class="st7" d="M-1241.9,1070.5c-2.9-0.1-3.8,0.6-3.8,3.6c0.2,9.6,0.2,19.1,0,28.7c0,6.7-5.4,12.2-12.1,12.4
	c-6.4,0.2-10.2-3.8-11-11.3c-0.1-0.6-0.1-1.2-0.1-1.8c-0.1-7.9-0.1-15.8-0.1-23.8c0-8.4,0-8.4-8.6-7.9c-1.7,0.1-2.2,0.6-2.2,2.3
	c0.1,11.1-0.1,22.2,0.4,33.3c0.4,10.2,6.2,16.8,15.2,18.1c7.6,1.1,13.9-1.5,19.3-7.6c1.2,7,1.2,6.9,7.8,6.8c2.1,0,2.5-0.7,2.5-2.7
	c-0.2-14.4-0.2-28.8-0.3-43.2C-1234.9,1070.6-1234.9,1070.7-1241.9,1070.5z"/>
<path class="st7" d="M-1329.8,1070.5c-2.3,0-3,0.6-3,2.9c0.1,9,0.1,18,0,27c0,1.8-0.2,3.5-0.5,5.3c-1.4,5.7-6.6,9.7-12.4,9.6
	c-5.4-0.1-8.6-3.2-9.9-9.6c-0.2-1.2-0.4-2.3-0.4-3.5c-0.1-9.6-0.1-19.2-0.2-28.7c0-1,0.7-2.7-1.2-2.8c-2.7-0.2-5.4-0.1-8.2,0
	c-1.5,0-1.2,1.2-1.2,2c0,11.1-0.4,22.2,0.2,33.3c0.8,14.5,12.8,22.2,25.9,17.1c3.3-1.4,6.2-3.6,8.5-6.4c1.6,6.8,1.6,6.7,7.4,6.7
	c2.2,0,3-0.4,3-2.9c-0.2-14.2-0.2-28.4-0.3-42.6C-1322.2,1070.5-1322.1,1070.6-1329.8,1070.5z"/>
<path class="st7" d="M-2030.2,1078.4c-0.1-8,0-7.8-7.9-7.9c-2.4,0-2.9,0.8-2.9,3c0.1,9.9,0.1,19.8,0,29.8c-0.1,6.1-5.4,11.5-11.4,12
	c-6.4,0.5-10.3-2.9-11.3-10c-1.3-8.9-0.4-17.9-0.5-26.9c-0.1-7.9,0-7.8-8-7.8c-2.5,0-2.8,0.9-2.8,3.1c0.1,9.1,0,18.2,0.1,27.3
	c0,2.7,0.3,5.4,0.7,8.1c2,11.4,10.9,17.3,22.3,15c4.7-1,8.4-3.5,12.2-7.6c0.1,2.2,0.2,3.6,0.2,5c0,0.8,0,1.8,1.1,1.9
	c2.6,0.1,5.2,0.1,7.8,0c1.2,0,0.9-1.2,0.9-2C-2030.7,1107-2030,1092.7-2030.2,1078.4z"/>
<path class="st7" d="M-1424.6,1078.2c0-7.8,0-7.7-7.8-7.7c-2.3,0-2.8,0.8-2.7,2.8c0.1,8.9,0.1,17.7,0,26.6c0,1.8-0.1,3.5-0.4,5.3
	c-1,5.7-6.6,10.1-12.5,10.1c-5.7-0.1-9.3-3.7-10.1-10.2c-0.3-2.8-0.5-5.6-0.5-8.5c-0.1-7.8,0-15.6,0-23.4c0-1.2,0.4-2.9-1.8-2.6
	c-2.9,0.5-6-1.3-8.6,1c-0.1,0.1-0.1,0.5-0.1,0.7c0.2,11.9-0.9,23.9,0.5,35.8c1.4,12.4,11.6,18.8,23.6,15.7c4.2-1.1,7.6-3.6,10.8-7.3
	c0.7,7,0.7,7,7,6.9c0.1,0,0.2,0,0.4,0c2.5,0.4,2.9-0.8,2.8-3C-1424.9,1106.3-1424.6,1092.3-1424.6,1078.2z"/>
<path class="st7" d="M-1366,1050c0.7-2.2,0-3.3-2.4-3.9c-11.5-3-21.3,2.6-24,14.2c-0.6,2.4-1,4.9-1,7.3c0.1,2.5-0.8,3.3-3.2,3.1
	c-1.3-0.1-3.5-0.8-3.9,0.6c-0.6,2.3-0.6,4.7-0.1,7c0.4,1.8,2.7,0.9,4,0.8c2.6-0.2,3.2,0.8,3.1,3.2c-0.2,6.3,0,12.5,0,18.8v15.6
	c0,6.8,0,6.6,7,6.8c2.9,0.1,3.8-0.7,3.7-3.7c-0.2-12.5,0-25-0.1-37.6c0-2.5,0.7-3.3,3.2-3.1c2.5,0.2,5,0.1,7.4,0
	c0.8,0,1.9,0.2,1.9-1c0-2.3,0.4-4.9-0.3-7c-0.5-1.4-3-0.5-4.6-0.5c-8.3-0.1-9-0.9-6.6-9.3c1.6-5.5,5.5-8.3,11-6.7
	c3.7,1.1,4.8,0.3,4.8-3.2C-1366.2,1050.9-1366.1,1050.4-1366,1050z"/>
<path class="st7" d="M-1287.6,1070.6c-2.5,0.2-5-0.2-7.4,0.1c-3.1,0.4-3.8-0.9-3.6-3.7c0.2-3.6,0.1-7.3,0.1-11.1
	c-0.8,0.2-1.4,0.2-1.9,0.4c-8.6,2.1-8.7,2.1-8.5,10.7c0.1,3.3-1,4.1-4,3.8c-1.3-0.1-3.5-0.8-3.8,0.6c-0.6,2.3-0.6,4.7,0,7
	c0.5,1.8,2.7,0.9,4.1,0.8c2.9-0.3,3.8,0.6,3.8,3.6c-0.2,8.6-0.2,17.3-0.1,25.9c0.1,9.2,3.8,14.3,11.2,15.7c3.4,0.5,6.9,0.3,10.2-0.6
	c1.3-0.3,2.1-0.9,1.9-2.5c-0.2-1.3-0.2-2.6-0.2-3.9c0.1-2.1-0.6-2.5-2.7-2.2c-7.6,1-9.8-1-9.9-8.8c-0.1-6.5,0-13,0-19.5
	c0-7.7,0-7.7,7.7-7.7c6,0,5.9,0,5.9-6C-1285.1,1071.1-1285.6,1070.4-1287.6,1070.6z"/>
<path class="st7" d="M-1537.3,1093.5c-3.1-1.5-6.4-2.3-9.3-4.2c-2.2-1.4-3.4-3.3-3-5.9c0.4-2.4,2.2-4.3,4.6-4.9
	c3.1-0.9,6.4-0.7,9.4,0.5c1.6,0.6,3.2,1.2,4.8,1.9c0.6-1.8,1.3-3.5,2.1-5.2c1.1-2.2,0.3-3.1-1.7-3.9c-5.2-2.1-10.9-2.7-16.3-1.6
	c-6.8,1.3-12,6.5-12.9,12.5c-1,6.7,1.8,11.9,8.6,15.6c2.2,1.2,4.6,1.9,6.8,3c1.6,0.7,3.2,1.5,4.7,2.5c2.2,1.4,3.3,3.9,2.8,6.4
	c-0.3,2.8-2,4.4-4.5,5.3c-1.9,0.6-3.9,0.9-5.9,0.7c-4.1-0.2-7.8-1.9-11.5-3.8c-0.5,1.9-1.2,3.7-1.9,5.5c-1,2.2-0.5,3.4,1.8,4.3
	c7.2,2.8,14.5,3.4,21.8,1c7.7-2.5,11.8-9.1,10.6-17.1C-1527.3,1099.5-1531.9,1096-1537.3,1093.5z"/>
<path class="st7" d="M-1963.8,1095.3c-3.8-2.4-8.3-3.4-12.2-5.6c-2.3-1.3-4-3.1-3.6-6c0.4-3,2.4-4.7,5.3-5.4
	c3.6-0.8,7.4-0.3,10.6,1.5c2.3,1.2,3.2,1.2,4.1-1.6c1.8-5.9,2-5.9-3.9-7.6c-2.5-0.7-5.1-1.1-7.7-1.1c-1.5,0.1-3.1,0.1-4.6,0.3
	c-7.1,1-12.8,6.2-13.9,12.8s2,12,8.7,15.5c1.7,0.9,3.5,1.5,5.2,2.3s3.5,1.5,5.1,2.4c2.9,1.6,4.6,4,3.9,7.6c-0.7,3.6-3.3,5-6.6,5.5
	c-3.6,0.5-7.4,0-10.8-1.4c-4.8-1.9-4.6-1.8-6.5,3.2c-1,2.6-0.1,3.6,2.1,4.4c6.3,2.5,13.2,3,19.8,1.4c5.1-1.3,9.3-4.1,11.4-9.2
	C-1954.3,1107-1956.9,1099.7-1963.8,1095.3z"/>
<path class="st7" d="M-1875.1,1092.7c-2.7-1.2-5.6-2-8-3.8c-2.6-1.8-3.3-5.3-1.5-8c0.7-1,1.7-1.8,2.9-2.2c1.9-0.7,3.9-1,5.9-0.7
	c3.2,0.5,6.3,1.5,9.1,3.1c0.5-1.8,1.2-3.6,1.9-5.4c1.1-2.2,0.3-3.2-1.7-4c-6.3-2.5-12.7-3-19-0.8c-6.1,2.2-9.7,6.6-10.3,13.1
	c-0.6,6.1,2.7,10.3,7.5,13.4c2.1,1.3,4.4,2.3,6.7,3.1c2.3,0.7,4.4,1.8,6.3,3.2c4.3,3.6,3.3,9.6-2,11.6c-4.2,1.5-8.4,0.8-12.5-0.7
	c-5.4-2-5.3-2-7.1,3.8c-0.5,1.7-0.4,2.5,1.3,3.3c8.1,3.4,16.3,4,24.4,0.5c6.8-2.9,10-9.6,8.6-16.9S-1869.3,1095.2-1875.1,1092.7z"/>
<path class="st7" d="M-1200.3,1069.6c-6.4,0-10.5,3.5-14.3,9c-0.3-8.4-0.3-8.3-7.4-8c-2,0.1-2.2,0.8-2.2,2.5
	c0.1,14.3,0.2,28.6,0.2,42.9c0,7.4,0,7.3,7.3,7.4c2.6,0,3.5-0.5,3.4-3.3c-0.2-8,0-16.1-0.1-24.1c-0.1-3.1,0.5-6.2,1.7-9
	c1.9-4.1,5-6.9,9.7-7.2s4.8-0.3,4.8-5.2c0-0.6,0-1.2,0-1.8C-1196.9,1070.4-1197.9,1069.6-1200.3,1069.6z"/>
<path class="st7" d="M-1703.7,1075.1c-0.1-0.5-0.1-0.9,0-1.4c0.6-3.6-1.1-4.4-4.3-4.1c-5.7,0.4-9.5,3.7-12.6,8.2
	c-0.2-0.4-0.4-0.8-0.5-1.2c-0.7-6.1-0.7-6-6.7-6.1c-2.3,0-3,0.5-2.9,2.9c0.9,14.2,0.4,28.3,0.5,42.5c0,7.7,0,7.6,7.7,7.5
	c2.2,0,2.8-0.6,2.8-2.8c-0.1-8.1,0-16.3,0-24.4c-0.1-3.2,0.5-6.4,1.8-9.3c2-4.1,5.1-7.2,9.8-6.9
	C-1704.1,1080.2-1703.1,1078.8-1703.7,1075.1z"/>
<path class="st7" d="M-1995.6,1069.6c-6.2-0.1-10.4,3.1-13.8,8.3c-1.2-2.5,0.2-5.2-1.1-6.6c-1.3-1.5-4-0.3-6.1-0.6
	c-2.5-0.4-3.2,0.5-3.1,3.1c0.3,5.3,0.4,10.6,0.5,15.9c0.1,10.3,0,20.5,0,30.8c0,1-0.7,2.7,1.1,2.9c2.7,0.2,5.4,0.2,8.1,0.1
	c1.6-0.1,1.2-1.5,1.2-2.5c0-3.3,0-6.6,0-9.9c0.1-6.5-0.5-13,0.4-19.5c0.9-6.4,5.3-11.2,10.6-11.6c5.1-0.4,5.1-0.4,5.1-5.5
	c0-0.6,0-1.2,0-1.8C-1992.2,1070.1-1993.4,1069.6-1995.6,1069.6z"/>
<path class="st7" d="M-1540,901.6c6.2,0.1,11.3-4.7,11.4-10.9c0-0.1,0-0.1,0-0.2c0.1-6-4.8-10.8-11.1-10.9
	c-6.5-0.1-11.6,4.6-11.6,10.8c-0.1,6.2,4.9,11.2,11.1,11.2C-1540.1,901.6-1540,901.6-1540,901.6z"/>
<path class="st7" d="M-1132.1,879.6c-6.6,0-11.3,4.5-11.3,10.9c0.2,6.2,5.4,11,11.6,10.8c5.9-0.2,10.7-5,10.8-11
	C-1121,884.2-1125.6,879.7-1132.1,879.6z"/>
<path class="st7" d="M-1741,879.6c-6.6,0-11.4,4.6-11.4,10.9c0,6.2,5.1,11.2,11.3,11.2c6.2,0,11.2-5.1,11.2-11.3
	C-1729.8,884.3-1734.6,879.7-1741,879.6z"/>
<path class="st8" d="M-1136.3,1109.6c-4,0.1-6.9,3.1-6.9,7.4s2.8,7.5,6.8,7.5c4.2,0.1,7.1-3,7.1-7.5
	C-1129.5,1112.4-1132.3,1109.6-1136.3,1109.6z"/>
<path class="st7" d="M-934.3,962.6c-0.2-20.2-10.3-33.5-28.2-38c-9.6-2.4-19.2-2.3-28.9-0.8c-10.7,1.5-20.8,5.7-29.5,12.1
	c-1.7,1.2-2.3,2.3-0.9,4.3c2.1,3.1,3.9,6.4,5.9,9.7c12.2-10.1,26-13.9,41.4-12.7c13.7,1.1,22.1,8.7,24.1,22.1c0.4,2.6,0,5.2,0.3,7.8
	c0.3,2.6-0.6,3.5-3.4,3.5c-13.6,0.1-27.2-0.9-40.8,0.6c-8.3,0.9-16.2,3.3-22.7,9c-12.7,10.9-13.1,38.1,7.6,48.6
	c19.4,9.8,43.1,5.9,59.9-10.3c0,4.3,0.1,8.2,0,12.2c0,1.7,0.5,2.3,2.2,2.2c3.4-0.1,6.9-0.2,10.3,0c2.3,0.1,2.7-0.9,2.7-2.9
	C-934.3,1007.5-934,985-934.3,962.6z M-950.1,997.9c0,1.4-0.4,2.8-1,4c-6.8,14-21.8,21.3-38.3,18.7c-3.9-0.5-7.6-1.6-11.1-3.3
	c-6.7-3.7-9.8-9.4-9.5-16.9c0.3-8,4.5-13.2,12.1-15.6c4.3-1.3,8.8-2,13.2-2c5-0.1,9.9,0,14.9,0c5.7,0,11.3,0.1,17-0.1
	c2.2-0.1,2.8,0.7,2.8,2.8C-950.2,989.6-950.2,993.7-950.1,997.9L-950.1,997.9z"/>
<radialGradient id="SVGID_00000150072833410377614960000016070170868249546651_" cx="-2361.7632" cy="-3500.9443" r="194.47" gradientTransform="matrix(1 0 0 -1 0 -2499.1599)" gradientUnits="userSpaceOnUse">
	<stop  offset="0" style="stop-color:#4DADCB"/>
	<stop  offset="1" style="stop-color:#05497F"/>
</radialGradient>
<circle style="fill:url(#SVGID_00000150072833410377614960000016070170868249546651_);" cx="-2361.8" cy="1001.8" r="194.5"/>
<radialGradient id="SVGID_00000021825107824378076650000007006261966557231773_" cx="-2466.0933" cy="-3473.9744" r="37.62" gradientTransform="matrix(1 0 0 -1 0 -2499.1599)" gradientUnits="userSpaceOnUse">
	<stop  offset="0" style="stop-color:#F19532"/>
	<stop  offset="1" style="stop-color:#FCDB13"/>
</radialGradient>
<circle style="fill:url(#SVGID_00000021825107824378076650000007006261966557231773_);" cx="-2466.1" cy="974.8" r="37.6"/>
<radialGradient id="SVGID_00000124866675412917923040000013118692608137746844_" cx="-2383.7632" cy="-3389.5144" r="31.23" gradientTransform="matrix(1 0 0 -1 0 -2499.1599)" gradientUnits="userSpaceOnUse">
	<stop  offset="0" style="stop-color:#F19532"/>
	<stop  offset="1" style="stop-color:#FCDB13"/>
</radialGradient>
<circle style="fill:url(#SVGID_00000124866675412917923040000013118692608137746844_);" cx="-2383.8" cy="890.4" r="31.2"/>
<radialGradient id="SVGID_00000000903451865974449370000001531517605184441787_" cx="-2278.4131" cy="-3389.8142" r="25.96" gradientTransform="matrix(1 0 0 -1 0 -2499.1599)" gradientUnits="userSpaceOnUse">
	<stop  offset="0" style="stop-color:#F19532"/>
	<stop  offset="1" style="stop-color:#FCDB13"/>
</radialGradient>
<circle style="fill:url(#SVGID_00000000903451865974449370000001531517605184441787_);" cx="-2278.4" cy="890.7" r="26"/>
<radialGradient id="SVGID_00000014599764616301370160000000509888113883733888_" cx="-2450.8381" cy="-3526.2742" r="139.8586" gradientTransform="matrix(1 0 0 -1 0.29 -2499.3)" gradientUnits="userSpaceOnUse">
	<stop  offset="0" style="stop-color:#F19532"/>
	<stop  offset="1" style="stop-color:#FCDB13"/>
</radialGradient>
<path style="fill:url(#SVGID_00000014599764616301370160000000509888113883733888_);" d="M-2477.4,1062.1c0,0-25-14.2-43.3-78.8
	c-19.2-67.4-16.3-119.2-16.3-119.2s-53.2,117.8-6.4,217.9c45.3,96.8,139.1,107.9,139.1,107.9l1-18.6c3-54,19.3-106.3,47.3-152.5
	l17.6-29c0,0-39.6-11.1-85.2,17C-2456.9,1027.3-2477.4,1062.1-2477.4,1062.1z"/>
</svg>
